<?xml version="1.0" encoding="UTF-8" standalone="no"?>
<svg
   xmlns:dc="http://purl.org/dc/elements/1.1/"
   xmlns:cc="http://creativecommons.org/ns#"
   xmlns:rdf="http://www.w3.org/1999/02/22-rdf-syntax-ns#"
   xmlns:svg="http://www.w3.org/2000/svg"
   xmlns="http://www.w3.org/2000/svg"
   xmlns:sodipodi="http://sodipodi.sourceforge.net/DTD/sodipodi-0.dtd"
   xmlns:inkscape="http://www.inkscape.org/namespaces/inkscape"
   height="1080"
   width="1920"
   version="1.1"
   id="svg4"
   sodipodi:docname="splash-screen.svg"
   inkscape:version="1.0.1 (3bc2e813f5, 2020-09-07)"
   inkscape:export-filename="C:\Users\SeanNolan\OneDrive - The Nolans\Documents\ferry imgs\splash-screen_fhd.png"
   inkscape:export-xdpi="96"
   inkscape:export-ydpi="96">
  <metadata
     id="metadata10">
    <rdf:RDF>
      <cc:Work
         rdf:about="">
        <dc:format>image/svg+xml</dc:format>
        <dc:type
           rdf:resource="http://purl.org/dc/dcmitype/StillImage" />
        <dc:title></dc:title>
      </cc:Work>
    </rdf:RDF>
  </metadata>
  <defs
     id="defs8">
    <rect
       x="1262.3388"
       y="845.21812"
       width="554.33137"
       height="181.11817"
       id="rect856" />
    <rect
       x="1231.2377"
       y="181.11817"
       width="684.22419"
       height="435.41539"
       id="rect850" />
  </defs>
  <sodipodi:namedview
     pagecolor="#ffffff"
     bordercolor="#666666"
     borderopacity="1"
     objecttolerance="10"
     gridtolerance="10"
     guidetolerance="10"
     inkscape:pageopacity="0"
     inkscape:pageshadow="2"
     inkscape:window-width="1920"
     inkscape:window-height="974"
     id="namedview6"
     showgrid="false"
     inkscape:zoom="1.0289025"
     inkscape:cx="289.3065"
     inkscape:cy="302.86237"
     inkscape:window-x="-11"
     inkscape:window-y="-11"
     inkscape:window-maximized="1"
     inkscape:current-layer="svg4" />
  <rect
     style="fill:#000000;fill-opacity:1;stroke:#000000;stroke-width:3.67977;stroke-linejoin:round;stroke-dashoffset:11.5321"
     id="rect846"
     width="716.32019"
     height="476.32022"
     x="1.8398882"
     y="1.8398882"
     inkscape:export-filename="C:\Users\SeanNolan\OneDrive - The Nolans\Documents\ferry imgs\channel-poster_sd.png"
     inkscape:export-xdpi="96"
     inkscape:export-ydpi="96" />
  <path
     d="M 223.04933,269.11087 Z M 101.60021,353.2088 73.861823,249.29932 q -1.499379,-4.8518 0.562259,-9.50143 2.061632,-4.64965 6.559759,-6.26692 l 22.115729,-8.08634 v -90.567 q 0,-10.10793 6.55975,-16.98132 6.55974,-6.87336 15.93084,-7.27769 h 56.22643 V 62.100584 h 82.46547 v 48.518036 h 56.22645 q 9.37104,0 15.93082,7.07554 6.55975,7.07554 6.55975,17.18347 v 90.97133 l 22.49058,7.68201 q 4.12327,1.61727 6.18492,6.06475 2.06159,4.44749 0.56225,9.29929 L 344.49845,353.2088 q -17.99246,-2.02159 -33.54844,-11.7252 -15.55602,-9.70361 -27.55096,-23.04607 -11.99497,14.5554 -27.17614,24.66334 -15.18112,10.10793 -33.17358,10.10793 -17.99247,0 -33.17362,-10.10793 -15.18113,-10.10794 -27.17611,-24.66334 -11.99497,13.34246 -27.55095,23.04607 -15.55599,9.70361 -33.54844,11.7252 z m -28.488082,64.69067 v -24.25902 h 29.987442 q 15.74341,0 31.11196,-5.25609 15.36856,-5.25613 28.86292,-14.95973 13.49435,9.7036 28.86291,14.5554 15.36856,4.85179 31.11197,4.85179 15.74338,0 31.11198,-4.85179 15.36856,-4.8518 28.8629,-14.5554 13.49432,9.7036 28.86287,14.95973 15.36856,5.25609 31.112,5.25609 h 29.9874 v 24.25902 h -29.9874 q -15.36856,0 -30.36231,-4.24532 -14.99372,-4.24535 -29.61256,-12.33169 -14.6189,8.08634 -29.98747,12.33169 -15.36853,4.24532 -29.98741,4.24532 -14.61888,0 -29.98745,-4.24532 -15.36856,-4.24535 -29.98743,-12.33169 -14.61888,8.08634 -29.6126,12.33169 -14.99371,4.24532 -30.36228,4.24532 z m 52.478032,-200.13685 97.45917,-33.96264 97.45918,34.36694 V 134.87763 H 125.59016 Z m 97.45917,111.18716 q 19.117,0 34.11069,-16.57701 14.99372,-16.57699 25.86419,-30.72808 9.37103,12.12951 20.80378,23.65253 11.43267,11.52303 24.92706,20.0137 l 19.11699,-72.37273 -124.82271,-43.66624 -125.197556,43.66624 19.491846,71.5641 q 13.1195,-7.68204 24.92704,-19.20507 11.80756,-11.52302 20.80379,-23.65253 11.24528,14.55541 25.86417,30.93024 14.61887,16.37485 34.11071,16.37485 z"
     id="path2"
     style="fill:#008000;fill-opacity:1;stroke-width:7.78606"
     inkscape:export-filename="C:\Users\SeanNolan\OneDrive - The Nolans\Documents\ferry imgs\channel-poster_sd.png"
     inkscape:export-xdpi="96"
     inkscape:export-ydpi="96" />
  <text
     xml:space="preserve"
     id="text848"
     style="font-size:106.667px;line-height:1.05;font-family:'Arial Rounded MT Bold';-inkscape-font-specification:'Arial Rounded MT Bold, Normal';white-space:pre;shape-inside:url(#rect850);"
     transform="matrix(0.37484295,0,0,0.44474859,-25.222579,32.326796)"
     inkscape:export-xdpi="96"
     inkscape:export-ydpi="96"><tspan
       x="1231.2383"
       y="266.57433"><tspan
         style="font-size:106.667px;fill:#008000;stroke:#008000">Washington
</tspan></tspan><tspan
       x="1231.2383"
       y="378.57467"><tspan
         style="font-size:106.667px;fill:#008000;stroke:#008000">Ferry
</tspan></tspan><tspan
       x="1231.2383"
       y="490.575"><tspan
         style="font-size:106.667px;fill:#008000;stroke:#008000">Cameras</tspan></tspan></text>
  <text
     xml:space="preserve"
     id="text854"
     style="font-size:48px;line-height:1.25;font-family:'Arial Rounded MT Bold';-inkscape-font-specification:'Arial Rounded MT Bold, Normal';white-space:pre;shape-inside:url(#rect856);"
     transform="matrix(0.37484295,0,0,0.44474859,-36.934711,-25.352929)"
     inkscape:export-xdpi="96"
     inkscape:export-ydpi="96"><tspan
       x="1262.3379"
       y="888.47435"><tspan
         style="font-size:48px;fill:#008000;stroke:#008000">shutdownhook.com</tspan></tspan></text>
</svg>
